/* XPM */
static char * item_xpm[] = {
"32 32 7 1",
" 	c #000000",
".	c #94890F",
"+	c #F2E018",
"@	c #CCBD14",
"#	c #FFEC19",
"$	c #FFFFFF",
"%	c #FEEB45",
"                                ",
"                                ",
"                                ",
"             .......            ",
"           ..+++++++..          ",
"         ..+++++++++++..        ",
"        .++++@@@@@@@++++.       ",
"       .+++@@#######@@+++.      ",
"      .+++@###$$$$####@+++.     ",
"      .++@##$$$$#######@++.     ",
"     .++@##$$$##########@++.    ",
"     .++@#$$$###########@++.    ",
"    .++@##$$##%##########@++.   ",
"    .++@#$$$##%###%%%####@++.   ",
"    .++@#$$##%######%####@++.   ",
"    .++@#$$#%##%####%####@++.   ",
"    .++@#$$#%%%%%#%%%####@++.   ",
"    .++@#$$####%##%######@++.   ",
"    .++@##$####%##%%%####@++.   ",
"     .++@#$#############@++.    ",
"     .++@###############@++.    ",
"      .++@#############@++.     ",
"      .+++@###########@+++.     ",
"       .+++@@#######@@+++.      ",
"        .++++@@@@@@@++++.       ",
"         ..+++++++++++..        ",
"           ..+++++++..          ",
"             .......            ",
"                                ",
"                                ",
"                                ",
"                                "};
