/* XPM */
static char * player2_xpm[] = {
"32 32 18 1",
" 	c #000000",
".	c #151748",
"+	c #AEE5F7",
"@	c #DDF3F9",
"#	c #DEF3FA",
"$	c #C8EDF8",
"%	c #A8E7EB",
"&	c #D9F4F4",
"*	c #DBF4F6",
"=	c #B0BFFC",
"-	c #A9E7EC",
";	c #D6F4F0",
">	c #DAF4F5",
",	c #DCF3F7",
"'	c #D6F1F9",
")	c #BDE9F7",
"!	c #7085DA",
"~	c #8498E8",
"                                ",
"                                ",
"                                ",
"                                ",
"                                ",
"                                ",
"                                ",
"          ...........           ",
"        ..++@#####$++..         ",
"       .%+&#####*&@#+==.        ",
"      .%-;######===*>+==.       ",
"     .++,#===========')==.      ",
"    .++===================.     ",
"    .+=====!!=====!!======.     ",
"    .======!!=====!!======.     ",
"    .======~!=====~!======.     ",
"    .======~~=====~~======.     ",
"    .~====================.     ",
"    .~~===================.     ",
"    .!~~=================~.     ",
"    .!~~~~==============~~.     ",
"    .!~~~~~============~~~.     ",
"    .!!~~~~~~~~=======~~!!.     ",
"     .!!~~~~~~~~~~~~~~~!!.      ",
"     .!!!!!!!!!!!!!!!!!!!.      ",
"      ...................       ",
"                                ",
"                                ",
"                                ",
"                                ",
"                                ",
"                                "};
