/* XPM */
static char * open_xpm[] = {
"52 26 158 2",
"  	c #000000",
". 	c #798C6D",
"+ 	c #A6C197",
"@ 	c #BAD6A8",
"# 	c #C3E0B0",
"$ 	c #C7E5B4",
"% 	c #C7E6B5",
"& 	c #A6C097",
"* 	c #5C6951",
"= 	c #353F30",
"- 	c #B5D1A4",
"; 	c #CBEAB8",
"> 	c #A5BE95",
", 	c #414D3C",
"' 	c #384233",
") 	c #B5D2A5",
"! 	c #B6D3A5",
"~ 	c #8FA582",
"{ 	c #5F6F55",
"] 	c #26261E",
"^ 	c #6B7D5F",
"/ 	c #C9E8B6",
"( 	c #C5E3B2",
"_ 	c #7F9474",
": 	c #0F1C0F",
"< 	c #B0CBA0",
"[ 	c #272E20",
"} 	c #4E5B47",
"| 	c #93AC86",
"1 	c #859B79",
"2 	c #323D2C",
"3 	c #718267",
"4 	c #CAE8B7",
"5 	c #CAE9B7",
"6 	c #45513D",
"7 	c #BAD7AA",
"8 	c #8EA47F",
"9 	c #B2CEA2",
"0 	c #8FA580",
"a 	c #708165",
"b 	c #869B78",
"c 	c #A6C096",
"d 	c #BCD9AA",
"e 	c #162216",
"f 	c #AEC89D",
"g 	c #C6E4B3",
"h 	c #889D7B",
"i 	c #617259",
"j 	c #C0DEAE",
"k 	c #57684E",
"l 	c #3A4431",
"m 	c #ABC79B",
"n 	c #C4E2B2",
"o 	c #C2E1B1",
"p 	c #BBD7A9",
"q 	c #5C6C54",
"r 	c #A7C096",
"s 	c #C9E7B6",
"t 	c #ACC89D",
"u 	c #B9D5A8",
"v 	c #829775",
"w 	c #758869",
"x 	c #586750",
"y 	c #7F9473",
"z 	c #475640",
"A 	c #C2E0B0",
"B 	c #BFDCAD",
"C 	c #8EA580",
"D 	c #65745B",
"E 	c #A4BE94",
"F 	c #90A882",
"G 	c #C8E7B5",
"H 	c #C5E3B3",
"I 	c #47523F",
"J 	c #869C7A",
"K 	c #B8D4A6",
"L 	c #8CA37F",
"M 	c #3B4436",
"N 	c #C6E5B4",
"O 	c #77896C",
"P 	c #596750",
"Q 	c #B1CCA0",
"R 	c #AAC399",
"S 	c #B1CDA0",
"T 	c #899F7C",
"U 	c #6F8064",
"V 	c #434F3B",
"W 	c #8DA380",
"X 	c #495742",
"Y 	c #0D0D0D",
"Z 	c #ADC79C",
"` 	c #4B5944",
" .	c #B3CEA3",
"..	c #94AB85",
"+.	c #BCD7AA",
"@.	c #627158",
"#.	c #55644C",
"$.	c #7C8F6F",
"%.	c #57664E",
"&.	c #97AF89",
"*.	c #9AB38C",
"=.	c #65765C",
"-.	c #738366",
";.	c #53634A",
">.	c #617056",
",.	c #AFCA9F",
"'.	c #C2DFB0",
").	c #384634",
"!.	c #C1DEAF",
"~.	c #A0BA91",
"{.	c #BEDBAC",
"].	c #7D9270",
"^.	c #7B8E6F",
"/.	c #9AB28B",
"(.	c #C8E7B6",
"_.	c #161606",
":.	c #91A783",
"<.	c #222A19",
"[.	c #53604A",
"}.	c #B3CFA2",
"|.	c #8A9F7C",
"1.	c #96AE89",
"2.	c #2F3A29",
"3.	c #66755A",
"4.	c #9DB58E",
"5.	c #1C261C",
"6.	c #B2CDA1",
"7.	c #4D5743",
"8.	c #67775D",
"9.	c #A8C298",
"0.	c #7E9371",
"a.	c #52614B",
"b.	c #8BA17E",
"c.	c #8EA481",
"d.	c #3D4635",
"e.	c #4C5945",
"f.	c #889C7A",
"g.	c #91A782",
"h.	c #6A7C60",
"i.	c #829676",
"j.	c #B8D4A7",
"k.	c #C4E2B1",
"l.	c #AFCA9E",
"m.	c #99B08A",
"n.	c #C1DFAF",
"o.	c #A1BA91",
"p.	c #7B9070",
"q.	c #5A6852",
"r.	c #ACC59C",
"s.	c #5D6B52",
"t.	c #B7D3A6",
"u.	c #697A5E",
"v.	c #B7D4A5",
"w.	c #A0B891",
"x.	c #B0CB9E",
"y.	c #8BA07E",
"z.	c #222A22",
"A.	c #627458",
"            . + @ # $ % & *                                                                             ",
"        = - ; ; ; ; ; ; ; ; > ,                                                                         ",
"      ' ) ; ; ! ~ { ] ^ & / ; ( _                                                                       ",
"    : < ; ; - [           } ( ; ; |                                                                     ",
"    1 ; ; ) 2               3 4 ; 5 6                                                                   ",
"    7 ; ; 8                   9 ; ; 0                                                                   ",
"  a ; ; ; b                   c ; ; d     e f g h                     i 5 j k   l m n o p q r ; s t }   ",
"  u ; ; ; v                   w ; ; ; x   y ; ; s z r A B C         D g ; ; 5 E z F G ; ; / ; ; ; ; H = ",
"I ; ; ; ; J                   } ; ; ; w   K ; ; ; m ; ; ; ; L     M g N O P Q ; ~   R ; ; ; S T g ; ; U ",
"V ; ; ; ; W                   X ; ; ; y Y O S ; ; ; Z `  .; 5 z   ..; +.@.#.U / #   ~ ; ; $.    %.5 ; &.",
"  S ; ; ; *.                  =.; ; ; -.    ;.5 ; S Y   >.; ; @.  ,.; ; $ $ ; 5 '.  | ; ; ).      !.; ~.",
"  ^ ; ; ; {.                  0 ; ; s [       - ; ].      G ; ^.Y n s ].e           /.; (._.      @ ; :.",
"  <.g ; ; ; [.                }.; ; m         j ; e       ! ; O ' ; / Y             |.; (         Q ; ~ ",
"    1.; ; ; p 2.            i ; ; ; 3.      Y s $ :       Q ; ].<.s ; =             $.; (.        t ; 4.",
"    5.9 ; ; ; 6.7.        8.{.; ; 9.        6 ; ; 0.    e A ; a.  ,.; |.            b.; ; =       @ ; c.",
"      d.j ; ; ; N ..e.2.f.(.; ; A ,         ' ; ; }.5.  g.; E     . ; N .   _.h.i.e j.; ; q     <.4 ; | ",
"        } k.; ; ; ; ; ; ; ; ; l.;.            o ; ; 9 m.4 m V     <.n.; ; ; ; ; :.o.; ; ; p.    *.; ; +.",
"          e q.R / ; ; ; s j.U                 j.; ; 5 r.=.          s.6.; ; t.u.  S ; ; (.p.    v.5 ; w.",
"                                              j.; x.6                                                   ",
"                                              {.; V                                                     ",
"                                              n ; q                                                     ",
"                                              5 ; y.                                                    ",
"                                            z.; ; r.                                                    ",
"                                            e ; ; 5 v                                                   ",
"                                              A ; ; 9                                                   ",
"                                              g.A A.                                                    "};
