/* XPM */
static char * close_xpm[] = {
"50 18 167 2",
"  	c #000000",
". 	c #6B5552",
"+ 	c #DCB4AC",
"@ 	c #EABFB8",
"# 	c #DCB3AD",
"$ 	c #8D726E",
"% 	c #1C0F0F",
"& 	c #4D3C3C",
"* 	c #A78782",
"= 	c #AB8C86",
"- 	c #160606",
"; 	c #A58580",
"> 	c #E7BEB6",
", 	c #DCB6AE",
"' 	c #E3B9B2",
") 	c #9D7F79",
"! 	c #B6958F",
"~ 	c #AD8C88",
"{ 	c #261C1C",
"] 	c #C39F9A",
"^ 	c #E6BDB5",
"/ 	c #B3938D",
"( 	c #7E6561",
"_ 	c #2A1919",
": 	c #2E2720",
"< 	c #675350",
"[ 	c #B7948E",
"} 	c #947873",
"| 	c #CDA7A1",
"1 	c #987C76",
"2 	c #B5948E",
"3 	c #E8BEB7",
"4 	c #745D58",
"5 	c #C5A19C",
"6 	c #B1908A",
"7 	c #D7B1AA",
"8 	c #826867",
"9 	c #806864",
"0 	c #E9BEB7",
"a 	c #C09E97",
"b 	c #715A58",
"c 	c #AB8B85",
"d 	c #A78883",
"e 	c #836A66",
"f 	c #2A2222",
"g 	c #E0B6B0",
"h 	c #E9BFB7",
"i 	c #51413D",
"j 	c #806663",
"k 	c #261E1E",
"l 	c #9D7F7B",
"m 	c #8C716D",
"n 	c #967A76",
"o 	c #6C5754",
"p 	c #B89791",
"q 	c #D6AEA8",
"r 	c #DEB4AE",
"s 	c #C09B96",
"t 	c #4F3F3B",
"u 	c #755F5A",
"v 	c #D1AAA4",
"w 	c #C9A49E",
"x 	c #6E5856",
"y 	c #725C59",
"z 	c #DEB5AE",
"A 	c #68514E",
"B 	c #D1ABA4",
"C 	c #B89590",
"D 	c #9C7D7A",
"E 	c #7B635F",
"F 	c #DBB3AC",
"G 	c #3F3030",
"H 	c #E6BCB6",
"I 	c #DDB4AD",
"J 	c #745E5B",
"K 	c #E4BBB3",
"L 	c #BE9B94",
"M 	c #3D2C2C",
"N 	c #937672",
"O 	c #78615F",
"P 	c #E7BDB6",
"Q 	c #D3ACA6",
"R 	c #C9A59F",
"S 	c #C4A09A",
"T 	c #463935",
"U 	c #D0A9A3",
"V 	c #7D645F",
"W 	c #443636",
"X 	c #E5BBB4",
"Y 	c #896F6C",
"Z 	c #CCA8A0",
"` 	c #A58682",
" .	c #A1837E",
"..	c #846B67",
"+.	c #AE8D89",
"@.	c #614F4B",
"#.	c #DBB2AC",
"$.	c #E2B8B2",
"%.	c #E1B8B1",
"&.	c #221616",
"*.	c #4B3A3A",
"=.	c #644F4C",
"-.	c #E8BDB6",
";.	c #E0B7B0",
">.	c #6F5A55",
",.	c #CDA7A0",
"'.	c #927670",
").	c #BD9994",
"!.	c #0D0D0D",
"~.	c #372B2B",
"{.	c #D2ABA5",
"].	c #CAA59F",
"^.	c #DFB6B0",
"/.	c #312424",
"(.	c #E2BAB2",
"_.	c #9B7D78",
":.	c #8B726C",
"<.	c #BD9A94",
"[.	c #B08E8A",
"}.	c #D2ADA5",
"|.	c #CEA8A2",
"1.	c #523F3F",
"2.	c #CAA59E",
"3.	c #423333",
"4.	c #705956",
"5.	c #AC8A86",
"6.	c #A48681",
"7.	c #CFA9A2",
"8.	c #9C7F7A",
"9.	c #D7AFAA",
"0.	c #493B37",
"a.	c #9D807B",
"b.	c #D6B0A8",
"c.	c #9F817C",
"d.	c #C7A29C",
"e.	c #816965",
"f.	c #A4847F",
"g.	c #DAB2AB",
"h.	c #957975",
"i.	c #C8A39D",
"j.	c #AF8F89",
"k.	c #907470",
"l.	c #DAB3AB",
"m.	c #5B4A47",
"n.	c #D0AAA3",
"o.	c #E2B8B1",
"p.	c #7F6762",
"q.	c #443631",
"r.	c #CBA69E",
"s.	c #7C6360",
"t.	c #D9B1AA",
"u.	c #B2928C",
"v.	c #C6A39C",
"w.	c #DEB5AF",
"x.	c #BF9C95",
"y.	c #907571",
"z.	c #76605C",
"A.	c #D9B0A9",
"B.	c #E4BAB3",
"C.	c #DFB7AF",
"D.	c #B2918B",
"E.	c #CFA9A3",
"F.	c #BA9991",
"G.	c #A88982",
"H.	c #634D4A",
"I.	c #D7AFA9",
"J.	c #7A625E",
"            . + @ @ @ @ # $ % & %       * =                                                         ",
"        - ; > @ @ @ @ @ @ @ , ' )     ! @ ~                                                         ",
"      { ] @ ^ / ( & _ : < ! @ @ [ } | @ @ 1                                                         ",
"      2 @ 3 4               5 @ 6 7 @ @ @ 8                                                         ",
"    9 0 @ a                 b @ c   d @ @ e                                                         ",
"  f g @ h i                   j k   } @ @ $                                                         ",
"  l @ @ g                           m @ @ n       o p q 0 r s t       u v > w x         y h z A     ",
"  B @ @ C                           e @ @ D     E > @ @ @ @ @ F G   o H @ @ @ I f     J K @ @ 0 L % ",
"M h @ @ p                           N @ @ O     q @ @ 7 F P @ @ Q _ R @ S T U @ V   W K X Y < Z @ ` ",
". @ @ @ s                            .@ @ ..  O @ @ +.    @.#.@ @ } $.@ %.&.. s *.  c @ 7 b =.9 -.;.",
">.@ @ @ ,.                          '.@ @ Y   ).@ ;.!.      ~.7 @ ,.{.@ @ `         ].@ @ X X @ h ^.",
"/.0 @ @ (.&.                        _.@ @ :.  X @ <.          [.@ }.J h @ @ |.1.  !.(.> '.&.        ",
"  B @ @ @ m                   @.2.3.4.@ @  .!.@ @ 5.          N @ q   6.@ @ @ 7.  3.@ -.!.          ",
"  8.@ @ @ 9.%                 Z @ 0.J @ @ a.  I @ b.f         c.@ d.    1 -.@ @ e._ > @ G           ",
"    = @ @ @ f.              Y @ g.- n @ @ ;   n @ @ h.        i.@ j.      l @ @ 6   ].@ c.          ",
"    !.! @ @ g ) -         k.X l.m.  w @ @ p     n.@ o.p.    ; @ X =.V q.  - ,.@ r.  m @ X m   - s.n ",
"        [ @ @ @ t.u.p v.w.@ x.&.  8 3 @ @ (.y.  z.(.@ @ A.r @ B.y   A.@ @ @ @ 0 6.  _ C.@ @ @ @ @ d ",
"        &.D.# -.> @ I E.F.<       G.H @ @ @ @ H.  8 t.(.X X p H.    a.%.0 ^ I.c.      . | @ @ Q J.  "};
