/* XPM */
static char * numbers_xpm[] = {
"220 28 222 2",
"  	c #000000",
". 	c #948A74",
"+ 	c #DFCEB0",
"@ 	c #EAD9B8",
"# 	c #E4D3B3",
"$ 	c #A59982",
"% 	c #1C1C0F",
"& 	c #C2B499",
"* 	c #E2D2B2",
"= 	c #847A67",
"- 	c #6F6755",
"; 	c #CFC0A2",
"> 	c #E0CFB0",
", 	c #BCAE94",
"' 	c #3A3529",
") 	c #686052",
"! 	c #B5A88E",
"~ 	c #E0D0B0",
"{ 	c #8C836D",
"] 	c #DFCFAF",
"^ 	c #E2D1B1",
"/ 	c #100E0B",
"( 	c #26261E",
"_ 	c #7F7663",
": 	c #C4B59A",
"< 	c #E5D5B4",
"[ 	c #C6B99C",
"} 	c #4E473B",
"| 	c #161606",
"1 	c #7A705E",
"2 	c #E5D4B4",
"3 	c #C8B99D",
"4 	c #CDBDA0",
"5 	c #E1D1B1",
"6 	c #61584B",
"7 	c #E4D4B3",
"8 	c #A1957D",
"9 	c #C1B398",
"0 	c #7D745F",
"a 	c #D5C6A8",
"b 	c #E9D8B7",
"c 	c #E8D7B6",
"d 	c #A0957E",
"e 	c #948874",
"f 	c #E6D6B6",
"g 	c #DCCCAC",
"h 	c #BFB195",
"i 	c #716758",
"j 	c #544D3E",
"k 	c #DBCBAC",
"l 	c #8B816C",
"m 	c #DDCCAD",
"n 	c #D4C4A5",
"o 	c #A1957E",
"p 	c #4D493C",
"q 	c #2E2E20",
"r 	c #D9CAAB",
"s 	c #5B5447",
"t 	c #C9BA9F",
"u 	c #968B76",
"v 	c #E3D3B3",
"w 	c #575143",
"x 	c #746A58",
"y 	c #E7D6B6",
"z 	c #5D5649",
"A 	c #595245",
"B 	c #DECDAE",
"C 	c #9F937C",
"D 	c #A79982",
"E 	c #C3B599",
"F 	c #9D927B",
"G 	c #D5C5A7",
"H 	c #D4C5A6",
"I 	c #2A2219",
"J 	c #746C5B",
"K 	c #A89C84",
"L 	c #C3B69A",
"M 	c #D9C9AA",
"N 	c #BAAD92",
"O 	c #7F7462",
"P 	c #E8D7B7",
"Q 	c #524B3F",
"R 	c #444036",
"S 	c #5E5848",
"T 	c #D7C7AA",
"U 	c #766F5C",
"V 	c #1A1A0F",
"W 	c #645B4C",
"X 	c #D6C6A8",
"Y 	c #DACBAB",
"Z 	c #D1C1A4",
"` 	c #A99D85",
" .	c #E3D3B2",
"..	c #D7C8AA",
"+.	c #51493D",
"@.	c #CCBEA0",
"#.	c #CABD9F",
"$.	c #D0C1A3",
"%.	c #6C6454",
"&.	c #9C907A",
"*.	c #9B8F79",
"=.	c #0D0D0D",
"-.	c #E7D6B5",
";.	c #8A806D",
">.	c #443A31",
",.	c #C0B396",
"'.	c #E7D7B6",
").	c #DCCCAE",
"!.	c #D4C4A7",
"~.	c #3B3B3B",
"{.	c #C5B79C",
"].	c #4F473B",
"^.	c #261C1C",
"/.	c #938872",
"(.	c #7B715F",
"_.	c #817965",
":.	c #B6A88F",
"<.	c #60594A",
"[.	c #B9AB92",
"}.	c #726959",
"|.	c #807563",
"1.	c #BAAB91",
"2.	c #37322B",
"3.	c #988C78",
"4.	c #463D34",
"5.	c #AFA289",
"6.	c #675E50",
"7.	c #938871",
"8.	c #C0B297",
"9.	c #DCCCAD",
"0.	c #665D4E",
"a.	c #ACA087",
"b.	c #998D77",
"c.	c #867C68",
"d.	c #AC9E86",
"e.	c #DECEAF",
"f.	c #8F846F",
"g.	c #CBBB9E",
"h.	c #4B463A",
"i.	c #BEB094",
"j.	c #AB9D85",
"k.	c #DACAAB",
"l.	c #B7AA8F",
"m.	c #908470",
"n.	c #E6D4B5",
"o.	c #68604E",
"p.	c #BDAE94",
"q.	c #342E28",
"r.	c #E1D0B1",
"s.	c #181611",
"t.	c #C7B89C",
"u.	c #8A7E6A",
"v.	c #A59A80",
"w.	c #BAAD91",
"x.	c #897F6B",
"y.	c #9B8E78",
"z.	c #3D382C",
"A.	c #221616",
"B.	c #676150",
"C.	c #D3C3A5",
"D.	c #575142",
"E.	c #928670",
"F.	c #DECEAE",
"G.	c #C5B79A",
"H.	c #C8BA9D",
"I.	c #948873",
"J.	c #635A4A",
"K.	c #827A67",
"L.	c #B1A58A",
"M.	c #423D33",
"N.	c #706856",
"O.	c #CBBDA0",
"P.	c #A79B83",
"Q.	c #B3A58B",
"R.	c #BEB095",
"S.	c #BDB094",
"T.	c #A3957F",
"U.	c #AA9E84",
"V.	c #B3A48C",
"W.	c #CFC0A3",
"X.	c #AB9F86",
"Y.	c #B0A38A",
"Z.	c #ADA188",
"`.	c #6E6656",
" +	c #313124",
".+	c #897F6C",
"++	c #D3C4A6",
"@+	c #564F40",
"#+	c #2A2A22",
"$+	c #B5A98E",
"%+	c #BAAC91",
"&+	c #C0B196",
"*+	c #908671",
"=+	c #CEC0A2",
"-+	c #D2C3A5",
";+	c #A39780",
">+	c #857B68",
",+	c #C4B699",
"'+	c #C7B79B",
")+	c #595244",
"!+	c #756B5A",
"~+	c #C1B297",
"{+	c #A89B82",
"]+	c #8D836E",
"^+	c #B2A58B",
"/+	c #837866",
"(+	c #C9BB9E",
"_+	c #B4A78C",
":+	c #887E6A",
"<+	c #AC9F87",
"[+	c #D6C7A8",
"}+	c #464235",
"|+	c #D2C2A5",
"1+	c #B2A68C",
"2+	c #7C7360",
"3+	c #8E836F",
"4+	c #B8AB91",
"5+	c #786F5F",
"6+	c #9D9179",
"7+	c #C2B498",
"8+	c #B7A98E",
"9+	c #776E5D",
"                                                                                                                                                                                                                                                                                                                                                                                                                                                        ",
"                                                                                                                                                                                                                                                                                                                                                                                                                                                        ",
"                                                                                                                                                                                                                                                                                                                                                                                                                                                        ",
"                                                                                                                                                                                                                                                                                                                                                                                                                                                        ",
"                                                                                                                                                                                                                                                                                                    . + @ @ @ @ @ @ @ # $                                                                                                                               ",
"                                                                                                                                                                                    % & * =                                 - ; > , '                                 ) ! ~ {                       ] @ @ @ @ @ @ @ @ @ ^                           / (                                                                                                 ",
"                                                                                                                                      _ : * < [ }                                   , @ @ ~ |                             1 2 @ @ @ 3                               4 @ @ 5 6                       7 @ @ @ @ 8 2 @ @ @ 9                     0 a b @ c < d                         ( e 9 ~ f g h i                                                     ",
"                                                                                                                                    j 2 @ @ @ @ k %                               l @ @ @ b                               m @ @ n o p                           q r @ @ g s                         5 @ t e l   u @ @ v w                   x y @ @ @ @ @ b z                     A B @ @ @ @ @ @ b C                                                   ",
"            s D k , ] E F %                         G @ @ @ @ @ b H I                       J K L M ~ N 6                           O * P @ @ @ @ Q                             R ~ @ @ @ *                             S @ T U V                             W X @ @ Y Q                           m Z (       ` @ @ C                   }  .@ ..- +.@.@ @ D                     #.@ @ $.s d @ @ @ b %.                                                ",
"          &.c @ @ @ @ @ @ ; +.                      *.@ @ @ @ @ @ 7 (                   =., @ @ @ @ @ @ -.;.                          q >.= * @ b                             =.,.@ '.).@ ).                          S n @ !.p                               k @ @ k j ~.                          {.].      =.+ @ m ^.                  /.@ @ (.    _.@ @ :.                  p @ @ @ <.    C @ @ @ [.                                    (           ",
"        }.@ @ @ @ @ @ @ @ @ M =.                      o '.@ @ @ + |.                    :.@ @ @ 1.2.3.2 @ 2 4.                              G @ L                             5.@ 7 6.0 @ ~                           7.@ @ @ + <.                          8.@ @ @ 9.K 0.                                    &.@ @ 7.                    a.@ @ b.    c.@ @ d.                  3.@ @ P %       e.@ @ M               z D :.d.        f.; b '.g.;.      ",
"      h.H @ @ + i.j.Z -.@ @ @ f.                        k.@ @ G                         3.> v l.(     K @ @ m.                            i P b x                           >.n.@ j.  z @ c |                         q k @ @ @ k (                       o.b @ @ @ @ @ @ p.%                               q.r.@ [                       s.* @ @ d   & @ ).                    t.@ @ ).        < @ @ y             d b @ @ @ ).u.  v.@ @ @ @ @ @ w.V   ",
"      ` @ @ v x.      s 9.@ @ Y %                     V @ @ @ i.                            %         8.@ @ y.                          Q g P _.                          z.t @ M A.  Q @ @ B.                          i -.@ @ @ D                       d.@ @ @ t.C.@ @ @ n D.                            3.@ > +.                        E.@ @ c Z @ * u.                    ^ @ @ Z         F.@ @ @ %           < @ @ @ @ @ * 3.b @ @ @ @ @ @ @ G.  ",
"      H.@ @ I.          J.< @ @ {                     ^.@ @ @ #.                                    }.b @ @ K.                      % L.P @ * M.                        j M @ @ v.N.W %.@ @ $.D w                         I.@ @ @ B                       O.@ @ :.  =.P.@ @ @ t.                            t.@ Q.                            R.@ @ @ @ 3.                    =.y @ @ [         ).@ @ G           ( c @ @._.c.& @ @ @ @ @ S.T.8.@ @ @ _ ",
"      g @ @ j             U.@ @ V.                      B @ @ w.                                  =.W.@ @ * q                       X.@ @ @ @ r.S                       $.@ @ @ @ @ @  .@ @ @ @ Y.                          Z.@ @ @ `.                    ..@ *  +    ( B @ @ y ^.                        .+@ b N.                              @ @ @ @ b v.                    ++@ @ f Q     @+b @ @ !           / @ @ +.      Z @ @ @ a.    =.@.@ @ ..",
"      ^ @ @ #+            e @ @ $+                      : @ @ w.                                =.%+@ @ @ u                         #+W 0 M @ @ t.                      < @ @ @ @ @ @ @ @ @ @ M `.                            &+@ @ *+                    > @ Y         c.@ @ @ Q                         =+@ 8.                              ` 7 * @ @ @ @ f.                  m.@ @ @ 4 Q f.-+@ @ @ ;+            b @ -     d c @ @ * ^.      >+@ @ F ",
"      5 @ @ S             ,+@ @ e                       '+@ @ ,.                              A.i.@ @ @ L                                 )+n.@ @ !+                    [ @ @ -.~+{+m.] @ @ t =.                              E.@ @ C                     * @ T         I @ @ #  +                      U @ @ )                             5.P o.^.a.@ @ @ ;                   | 4 @ @ @ @ @ @ @ @ @ o.            a @ ..(.b.@ @ @ @ 7 o.      m.@ @ e.",
"      n @ @ 5.          u @ @ '.q                       n @ @ L.                            @+@.@ @ @ '+I C.|.                              Z @ @ 8                     ( ]+]+A.      E @ @ ^+                                /+@ @ O                     * @ k         2.@ @ M                       ^.X @ t                             >+@ H.      S.@ @ b                       u.{.* @ @ @ @ @ i.              0 y @ @ @ @ @ R.  ` P H.j.^+c @ @ ^+",
"      =+@ @ y _.    A.d b @ @ V.                        (+@ @ @.                        =.l.b @ @ @ L A.K.@ &                               9.@ @ >+                                  3 @ @ $+                                d.@ * A.                    * @ 2 +.       +y @ $.                      _+@ @ _.                            g.@ j.      T.@ @ '.(                         q m @ @ @ t #+                x  .@ @ * E.      5.@ @ @ @ @ 4 ^.",
"      :+P @ @ @ n <+[+@ @ @ n.}+                      V @.@ @ @ x.                      ;.@ @ @ @ (+o.= > @ t                             1 @ @ @                                     |+@ @ 1+                              }+* @ [.                      a @ @ 3 |     4.@ @ K.                    }.@ @ B =.                            e.@ ^+    =.8.@ @ g.                          ! @ @ @ 1.A.                    } /.a.s.          >+g.e.$.{+(   ",
"        2+* @ @ @ @ @ @ @ r.:+                        P.@ @ @ @ f 3.                    D @ @ @ @ @ @ @ @ @ (+                        2.3++ @ @ 4+                                  p b @ @ g.                    5+#.H.c.)+$.@ $.R                       c.@ @ @ t.' A & 2 I.                      n @ @ Q.                              $.@ c m.>+@.@ @ @ ;.                      Q ! @ @ # ]+                                                        ",
"          ^.6+P @ @ @ -.Y.4.                        $ @ @ @ @ @ @.l.                    %.: k 2 b @ @ @ @ @ 4+                      }.F.@ @ 2 v.                                    1 @ @ @ 7+                    i.@ @ @ @ @ -+z.                          b.v @ @ @ @ Z z                       J @ @ @ S                               {+@ @ @ @ @ @ @ w.                      x.2 @ b t.<.                                                          ",
"              = T k X.6                             L * b B 8+P.                                  q.9+5.k.e.)                       E 2 Z 5.-                                       q.k.@ ] 2+                    4 @ @ @ ~ :.q.                              ( >+, ).$.s                         d @ @ k                                 ( 4 @ @ @ @ @ G.V                     z H u D.                                                                ",
"                                                                                                                                                                                      I   |                       p.Z &.1                                                                         J  .@ ,.                                  ^.^+e.F .._                                                                                                 ",
"                                                                                                                                                                                                                                                                                                    C (+;.                                                                                                                                              ",
"                                                                                                                                                                                                                                                                                                                                                                                                                                                        ",
"                                                                                                                                                                                                                                                                                                                                                                                                                                                        ",
"                                                                                                                                                                                                                                                                                                                                                                                                                                                        "};
