/* XPM */
static char * monster_bonus_xpm[] = {
"128 128 8 1",
" 	c #000000",
".	c #550B0B",
"+	c #750D0D",
"@	c #960E0E",
"#	c #C20C0C",
"$	c #D60E0E",
"%	c #E99595",
"&	c #330606",
"                                                                                                                                ",
"                                                                                                                                ",
"                                                                                                                                ",
"                                                                                                                                ",
"                                                                                                                                ",
"                                                                                                                                ",
"                                                                                                                                ",
"          ...........                                                                                                           ",
"        ..++++++@@@@#..                   ...........                                                                           ",
"       .+++@@@######$$$.                ..++++++@@@@#..                   ...........                                           ",
"      .++@@@####$$$$$$$$.              .+++@@@######$$$.                ..++++++@@@@#..                   ...........           ",
"     .++@@####$$$$$$$$$$$.            .++@@@####$$$$$$$$.              .+++@@@######$$$.                ..++++++@@@@#..         ",
"    .+++@###$$$$$$$$$$$$$$.          .++@@###$$$$$$$$$$$$.            .++@@@###$$$$$$$$$.              .+++@@@#####$$$$.        ",
"    .++@###$$$$$$$$$$$$$$$.         .+++@###$$$$$$$$$$$$$$.          .++@@###$$$$$$$$$$$$.            .++@@@###$$$$$$$$$.       ",
"    .+@###$$#@@@@@#$$$$$$#.         .++@###$$$$$$$$$$$$$$$.         .+++@##$$$$$$$$$$$$$$$.          .++@@###$$$$$$$$$$$$.      ",
"    .+@###$#@%%%%%##$$$$$#.         .+@###$$#@@@@@#$$$$$$#.         .++@###$$$$$$$$$$$$$$$.         .+++@##$$$$$$$$$$$$$$$.     ",
"    .+###$#@%%..&%%##$$$##.         .+@##$$#@%%%%%##$$$$$#.         .+@###$$#######$$$$$$#.         .++@##$$$$$$$$$$$$$$$$.     ",
"    .@##$$#@%%.&&%%##$$$#@.         .+##$$#@%%..&%%##$$$##.         .+@##$$#@@@@@@##$$$$$#.         .+@##$$$#######$$$$$$#.     ",
"    .@##$$#@%%&&&%%##$$$#@.         .@##$$#@%%.&&%%##$$$#@.         .+##$$#@%%..&%%##$$$##.         .+@##$$#@@@@@@##$$$$$#.     ",
"    .##$$$$##%%%%%##$$$##+.         .##$$$$##%%%%%##$$$##+.         .@#$$$#@%%.&&%%##$$$#@.         .+##$$#@%%..&%@##$$$##.     ",
"    .##$$$$$#######$$$$#@+.         .##$$$$$#######$$$$#@+.         .##$$$$##%%%%%##$$$#@+.         .##$$$$##@@@@@##$$$#@+.     ",
"    .#$$$$$$$$$$$$$$$$##@+.         .#$$$$$$$$$$$$$$$$##@+.         .#$$$$$$#######$$$##@+.         .#$$$$$$#######$$$##@+.     ",
"    .#$$$$$$$$$$$$$$$##@++.         .#$$$$$$$$$$$$$$$##@++.         .#$$$$$$$$$$$$$$$##@++.         .#$$$$$$$$$$$$$$$##@++.     ",
"     .$$$$$$$$$$$$###@@@+.           .$$$$$$$$$$$$###@@@+.           .$$$$$$$$$$$$###@@@+.           .$$$$$$$$$$$$###@@@+.      ",
"     .$$$$$$$$$####@@@+++.           .$$$$$$$$$####@@@+++.           .$$$$$$$$$####@@@+++.           .$$$$$$$$$####@@@+++.      ",
"      ...................             ...................             ...................             ...................       ",
"                                                                                                                                ",
"                                                                                                                                ",
"                                                                                                                                ",
"                                                                                                                                ",
"                                                                                                                                ",
"                                                                                                                                ",
"                                                                                                                                ",
"                                                                                                                                ",
"                                                                                                                                ",
"                                                                                                                                ",
"                                                                                                                                ",
"                                                                                                                                ",
"                                                                                                                                ",
"           ...........                                                                                                          ",
"         ..#@@@@++++++..                   ...........                                                                          ",
"        .$$$######@@@+++.                ..#@@@@++++++..                   ...........                                          ",
"       .$$$$$$$$####@@@++.              .$$$$#####@@@+++.                ..#@@@@++++++..                   ...........          ",
"      .$$$$$$$$$$$####@@++.            .$$$$$$$$####@@@++.              .$$$$#####@@@+++.                ..#@@@@++++++..        ",
"     .$$$$$$$$$$$$$$###@+++.          .$$$$$$$$$$$####@@++.            .$$$$$$$$####@@@++.              .$$$$$####@@@+++.       ",
"     .$$$$$$$$$$$$$$$###@++.         .$$$$$$$$$$$$$$###@+++.          .$$$$$$$$$$$$###@@++.            .$$$$$$$$$###@@@++.      ",
"     .#$$$$$$$$$$$$$$$###@+.         .$$$$$$$$$$$$$$$###@++.         .$$$$$$$$$$$$$$###@+++.          .$$$$$$$$$$$$###@@++.     ",
"     .#$$$$$$$$$##$$$$###@+.         .#$$$$$$$$$##$$$$###@+.         .$$$$$$$$$$$$$$$###@++.         .$$$$$$$$$$$$$$###@+++.    ",
"     .##$$$$$$$#@@#$$$$###+.         .#$$$$$$$$#@@#$$$$##@+.         .#$$$$$$$$$##$$$$###@+.         .$$$$$$$$$$##$$$###@++.    ",
"     .@#$$$$$$#@@##$$$$$##@.         .##$$$$$$#@@##$$$$###+.         .##$$$$$$$#@@#$$$$$##+.         .#$$$$$$$$#@@#$$$$##@+.    ",
"     .@#$$$$$$$###$$$$$$##@.         .@#$$$$$$$###$$$$$$##@.         .@#$$$$$$#@@##$$$$$##@.         .##$$$$$$#@@##$$$$$##+.    ",
"     .+##$$$$$$$$$$$$$$$$##.         .@#$$$$$$$$$$$$$$$$##@.         .@#$$$$$$$###$$$$$$$#@.         .@#$$$$$$$###$$$$$$$#@.    ",
"     .+@#$$$$$$$$$$$$$$$$##.         .+@#$$$$$$$$$$$$$$$$$#.         .+@#$$$$$$$$$$$$$$$$##.         .@#$$$$$$$$$$$$$$$$$#@.    ",
"     .+@##$$$$$$$$$$$$$$$$#.         .+@##$$$$$$$$$$$$$$$$#.         .+@##$$$$$$$$$$$$$$$$#.         .+@##$$$$$$$$$$$$$$$$#.    ",
"     .++@##$$$$$$$$$$$$$$$#.         .++@##$$$$$$$$$$$$$$$#.         .++@##$$$$$$$$$$$$$$$#.         .++@##$$$$$$$$$$$$$$$#.    ",
"      .+@@@###$$$$$$$$$$$$.           .+@@@###$$$$$$$$$$$$.           .+@@@###$$$$$$$$$$$$.           .+@@@###$$$$$$$$$$$$.     ",
"      .+++@@@####$$$$$$$$$.           .+++@@@####$$$$$$$$$.           .+++@@@####$$$$$$$$$.           .+++@@@####$$$$$$$$$.     ",
"       ...................             ...................             ...................             ...................      ",
"                                                                                                                                ",
"                                                                                                                                ",
"                                                                                                                                ",
"                                                                                                                                ",
"                                                                                                                                ",
"                                                                                                                                ",
"                                                                                                                                ",
"                                                                                                                                ",
"                                                                                                                                ",
"                                                                                                                                ",
"                                                                                                                                ",
"                                                                                                                                ",
"                                                                                                                                ",
"          ...........                                                                                                           ",
"        ..++++++@@@@#..                   ...........                                                                           ",
"       .+++@@@######$$$.                ..++++++@@@@#..                   ...........                                           ",
"      .++@@@####$$$$$$$$.              .+++@@@######$$$.                ..++++++@@@@#..                   ...........           ",
"     .++@@####$$$$$$$$$$$.            .++@@@####$$$$$$$$.              .+++@@@######$$$.                ..++++++@@@@#..         ",
"    .+++@###$$$$$$$$$$$$$$.          .++@@###$$$$$$$$$$$$.            .++@@@###$$$$$$$$$.              .+++@@@#####$$$$.        ",
"    .++@###$$$$$$$$$$$$$$$.         .+++@###$$$$$$$$$$$$$$.          .++@@###$$$$$$$$$$$$.            .++@@@###$$$$$$$$$.       ",
"    .+@###$$$#@@@@@#$$$$$$.         .++@###$$$$$$$$$$$$$$$.         .+++@##$$$$$$$$$$$$$$$.          .++@@###$$$$$$$$$$$$.      ",
"    .+@###$$#@%%%%%##$$$$$.         .+@###$$#@@@@@#$$$$$$#.         .++@###$$$$$$$$$$$$$$$.         .+++@##$$$$$$$$$$$$$$$.     ",
"    .+###$$#@%%%%..&##$$$$.         .+@##$$#@%%%%%##$$$$$#.         .+@###$$#######$$$$$$#.         .++@##$$$$$$$$$$$$$$$$.     ",
"    .@##$$$#@%%%%.&&##$$$#.         .+##$$#@%%%%..&##$$$##.         .+@##$$#@@@@@@##$$$$$#.         .+@##$$$#######$$$$$$#.     ",
"    .@##$$$#@%%%%&&&##$$$#.         .@##$$#@%%%%.&&##$$$#@.         .+##$$#@%%%%..&##$$$##.         .+@##$$#@@@@@@##$$$$$#.     ",
"    .##$$$$$##%%%%%##$$$$@.         .##$$$$##%%%%%##$$$##+.         .@#$$$#@%%%%.&&##$$$#@.         .+##$$#@%%%%&&@##$$$##.     ",
"    .##$$$$$$#######$$$$#@.         .##$$$$$#######$$$$#@+.         .##$$$$##%%%%%##$$$#@+.         .##$$$$##@@@@@##$$$#@+.     ",
"    .#$$$$$$$$$$$$$$$$$$#@.         .#$$$$$$$$$$$$$$$$##@+.         .#$$$$$$#######$$$##@+.         .#$$$$$$#######$$$##@+.     ",
"    .#$$$$$$$$$$$$$$$$$$#@.         .#$$$$$$$$$$$$$$$##@++.         .#$$$$$$$$$$$$$$$##@++.         .#$$$$$$$$$$$$$$$##@++.     ",
"     .$$$$$$$$$$$$$#####@.           .$$$$$$$$$$$$###@@@+.           .$$$$$$$$$$$$###@@@+.           .$$$$$$$$$$$$###@@@+.      ",
"     .$$$$$$$$$$##@@@@@@@.           .$$$$$$$$$####@@@+++.           .$$$$$$$$$####@@@+++.           .$$$$$$$$$####@@@+++.      ",
"      ...................             ...................             ...................             ...................       ",
"                                                                                                                                ",
"                                                                                                                                ",
"                                                                                                                                ",
"                                                                                                                                ",
"                                                                                                                                ",
"                                                                                                                                ",
"                                                                                                                                ",
"                                                                                                                                ",
"                                                                                                                                ",
"                                                                                                                                ",
"                                                                                                                                ",
"                                                                                                                                ",
"                                                                                                                                ",
"           ...........                                                                                                          ",
"         ..#@@@@++++++..                   ...........                                                                          ",
"        .$$$######@@@+++.                ..#@@@@++++++..                   ...........                                          ",
"       .$$$$$$$$####@@@++.              .$$$######@@@+++.                ..#@@@@++++++..                   ...........          ",
"      .$$$$$$$$$$$####@@++.            .$$$$$$$$####@@@++.              .$$$######@@@+++.                ..#@@@@++++++..        ",
"     .$$$$$$$$$$$$$$###@+++.          .$$$$$$$$$$$$###@@++.            .$$$$$$$$$###@@@++.              .$$$$#####@@@+++.       ",
"     .$$$$$$$$$$$$$$$###@++.         .$$$$$$$$$$$$$$###@+++.          .$$$$$$$$$$$$###@@++.            .$$$$$$$$$###@@@++.      ",
"     .$$$$$$#@@@@@#$$$###@+.         .$$$$$$$$$$$$$$$###@++.         .$$$$$$$$$$$$$$$##@+++.          .$$$$$$$$$$$$###@@++.     ",
"     .$$$$$##%%%%%@#$$###@+.         .#$$$$$$#@@@@@#$$###@+.         .$$$$$$$$$$$$$$$###@++.         .$$$$$$$$$$$$$$$##@+++.    ",
"     .$$$$##&..%%%%@#$$###+.         .#$$$$$##%%%%%@#$$##@+.         .#$$$$$$#######$$###@+.         .$$$$$$$$$$$$$$$$##@++.    ",
"     .#$$$##&&.%%%%@#$$$##@.         .##$$$##&..%%%%@#$$##+.         .#$$$$$##@@@@@@#$$##@+.         .#$$$$$$#######$$$##@+.    ",
"     .#$$$##&&&%%%%@#$$$##@.         .@#$$$##&&.%%%%@#$$##@.         .##$$$##&..%%%%@#$$##+.         .#$$$$$##@@@@@@#$$##@+.    ",
"     .@$$$$##%%%%%##$$$$$##.         .+##$$$##%%%%%##$$$$##.         .@#$$$##&&.%%%%@#$$$#@.         .##$$$##@&&%%%%@#$$##+.    ",
"     .@#$$$$#######$$$$$$##.         .+@#$$$$#######$$$$$##.         .+@#$$$##%%%%%##$$$$##.         .+@#$$$##@@@@@##$$$$##.    ",
"     .@#$$$$$$$$$$$$$$$$$$#.         .+@##$$$$$$$$$$$$$$$$#.         .+@##$$$#######$$$$$$#.         .+@##$$$#######$$$$$$#.    ",
"     .@#$$$$$$$$$$$$$$$$$$#.         .++@##$$$$$$$$$$$$$$$#.         .++@##$$$$$$$$$$$$$$$#.         .++@##$$$$$$$$$$$$$$$#.    ",
"      .@#####$$$$$$$$$$$$$.           .+@@@###$$$$$$$$$$$$.           .+@@@###$$$$$$$$$$$$.           .+@@@###$$$$$$$$$$$$.     ",
"      .@@@@@@@##$$$$$$$$$$.           .+++@@@####$$$$$$$$$.           .+++@@@####$$$$$$$$$.           .+++@@@####$$$$$$$$$.     ",
"       ...................             ...................             ...................             ...................      ",
"                                                                                                                                ",
"                                                                                                                                ",
"                                                                                                                                ",
"                                                                                                                                ",
"                                                                                                                                ",
"                                                                                                                                "};
