/* XPM */
static char * npc_bonus_xpm[] = {
"256 32 7 1",
" 	c #000000",
".	c #19361A",
"+	c #74F578",
"@	c #79FF7D",
"#	c #67DB6B",
"$	c #377539",
"%	c #55B558",
"                                                                                                                                                                                                                                                                ",
"                                                                                                                                                                                                                                                                ",
"                                                                                                                                                                                                                                                                ",
"                                                                                                                                                                                                                                                                ",
"                                                                                                                                                                                                                                                                ",
"                                                                                                                                                                                                                                                                ",
"                                                                                                                                                                                                                                                                ",
"          ...........                                                                                                                                                                                     ...........                     ...........           ",
"        ..++@@@@@@@++..                   ...........                                                                                                                     ...........                   ..++@@@@@@@++..                 ..++@@@@@@@++..         ",
"       .++@@@@@@@@@@+##.                ..++@@@@@@@++..                   ...........                                                     ...........                   ..++@@@@@@@++..                .++@@@@@@@@@@+##.               .++@@@@@@@@@@+##.        ",
"      .++@@@@@@@###@@+##.              .++@@@@@@@@@@+##.                ..++@@@@@@@++..                   ...........                   ..++@@@@@@@++..                .++@@@@@@@@@@+##.              .++@@@@@@@###@@+##.             .++@@@@@@@###@@+##.       ",
"     .++@@###########@+##.            .++@@@@@@@###@@+##.              .++@@@@@@@@@@+##.                ..++@@@@@@@++..                .++@@@@@@@@@@+##.              .++@@@@@@@###@@+##.            .++@@###########@+##.           .++@@###########@+##.      ",
"    .++###################.          .++@@###########@+##.            .++@@@@@@@###@@+##.              .++@@@@@@@@@@+##.              .++@@@@@@@###@@+##.            .++@@###########@+##.          .++###################.         .++###################.     ",
"    .+#####$$#####$$######.         .++###################.          .++@@###########@+##.            .++@@@@@@@###@@+##.            .++@@###########@+##.          .++###################.         .+#####$$#####$$######.         .+#####$$#####$$######.     ",
"    .######$$#####$$######.         .+#####$$#####$$######.         .++###################.          .++@@###########@+##.          .++###################.         .+#####$$#####$$######.         .######$$#####$$######.         .######$$#####$$######.     ",
"    .######%$#####%$######.         .######$$#####$$######.         .+#####$$#####$$######.         .++###################.         .+#####$$#####$$######.         .######$$#####$$######.         .######%$#####%$######.         .######%$#####%$######.     ",
"    .######%%#####%%######.         .######%$#####%$######.        ..######$$#####$$######..       ..+#####$$#####$$######.        ..######$$#####$$######..        .######%$#####%$######.         .######%%#####%%######.         .######%%#####%%######.     ",
"    .%####################.        .%######%%#####%%######%.       .#######%$#####%$#######.      ..#######$$#####$$#######.       .#######%$#####%$#######.       .%######%%#####%%######%.        .%####################.         .%####################.     ",
"    .%%###################.        .%%%###################%.      .%%######%%#####%%#######%.     .########%$#####%$########.     .%%######%%#####%%#######%.      .%%%###################%.        .%%###################.         .%%###################.     ",
"    .$%%#################%.        .$$%%#################%%.      .$%%####################%%.    .#########%%#####%%#########.    .$%%####################%%.      .$$%%#################%%.        .$%%#################%.         .$%%#################%.     ",
"    .$%%%%##############%%.         .$%%%%##############%%.        .$%%%################%%%.     .$########################%%.     .$%%%################%%%.        .$%%%%##############%%.         .$%%%%##############%%.         .$%%%%##############%%.     ",
"    .$%%%%%############%%%.         .$%%%%%############%%%.        .$$%%%##############%%%$.      .$%####################%%$.      .$$%%%##############%%%$.        .$%%%%%############%%%.         .$%%%%%############%%%.         .$%%%%%############%%%.     ",
"    .$$%%%%%%%%#######%%$$.         .$$%%%%%%%%#######%%$$.         .$$%%#############%%$$.       .$$%%#################%%$$.       .$$%%#############%%$$.         .$$%%%%%%%%#######%%$$.         .$$%%%%%%%%#######%%$$.         .$$%%%%%%%%#######%%$$.     ",
"     .$$%%%%%%%%%%%%%%%$$.           .$$%%%%%%%%%%%%%%%$$.           .$$%%%%%%%%%%%%%%%$$.         ..$$%%%%%%%%%%%%%%%%%%$..         .$$%%%%%%%%%%%%%%%$$.           .$$%%%%%%%%%%%%%%%$$.           .$$%%%%%%%%%%%%%%%$$.           .$$%%%%%%%%%%%%%%%$$.      ",
"     .$$$$$$$$$$$$$$$$$$$.           .$$$$$$$$$$$$$$$$$$$.           .$$$$$$$$$$$$$$$$$$$.           .$$$$$$$$$$$$$$$$$$$.           .$$$$$$$$$$$$$$$$$$$.           .$$$$$$$$$$$$$$$$$$$.           .$$$$$$$$$$$$$$$$$$$.           .$$$$$$$$$$$$$$$$$$$.      ",
"      ...................             ...................             ...................             ...................             ...................             ...................             ...................             ...................       ",
"                                                                                                                                                                                                                                                                ",
"                                                                                                                                                                                                                                                                ",
"                                                                                                                                                                                                                                                                ",
"                                                                                                                                                                                                                                                                ",
"                                                                                                                                                                                                                                                                ",
"                                                                                                                                                                                                                                                                "};
