/* XPM */
static char * player_bonus_xpm[] = {
"128 32 8 1",
" 	c None",
".	c #000000",
"+	c #19361A",
"@	c #74F578",
"#	c #79FF7D",
"$	c #67DB6B",
"%	c #377539",
"&	c #55B558",
"................................................................................................................................",
"................................................................................................................................",
"................................................................................................................................",
"................................................................................................................................",
"................................................................................................................................",
"................................................................................................................................",
"................................................................................................................................",
"..........+++++++++++...........................................................................................................",
"........++@@#######@@++...................+++++++++++...........................................................................",
".......+@@##########@$$+................++@@#######@@++...................+++++++++++...........................................",
"......+@@#######$$$##@$$+..............+@@##########@$$+................++@@#######@@++...................+++++++++++...........",
".....+@@##$$$$$$$$$$$#@$$+............+@@#######$$$##@$$+..............+@@##########@$$+................++@@#######@@++.........",
"....+@@$$$$$$$$$$$$$$$$$$$+..........+@@##$$$$$$$$$$$#@$$+............+@@#######$$$##@$$+..............+@@##########@$$+........",
"....+@$$$$$%%$$$$$%%$$$$$$+.........+@@$$$$$$$$$$$$$$$$$$$+..........+@@##$$$$$$$$$$$#@$$+............+@@#######$$$##@$$+.......",
"....+$$$$$$%%$$$$$%%$$$$$$+.........+@$$$$$%%$$$$$%%$$$$$$+.........+@@$$$$$$$$$$$$$$$$$$$+..........+@@##$$$$$$$$$$$#@$$+......",
"....+$$$$$$&%$$$$$&%$$$$$$+.........+$$$$$$%%$$$$$%%$$$$$$+.........+@$$$$$%%$$$$$%%$$$$$$+.........+@@$$$$$$$$$$$$$$$$$$$+.....",
"....+$$$$$$&&$$$$$&&$$$$$$+.........+$$$$$$&%$$$$$&%$$$$$$+........++$$$$$$%%$$$$$%%$$$$$$++.......++@$$$$$%%$$$$$%%$$$$$$+.....",
"....+&$$$$$$$$$$$$$$$$$$$$+........+&$$$$$$&&$$$$$&&$$$$$$&+.......+$$$$$$$&%$$$$$&%$$$$$$$+......++$$$$$$$%%$$$$$%%$$$$$$$+....",
"....+&&$$$$$$$$$$$$$$$$$$$+........+&&&$$$$$$$$$$$$$$$$$$$&+......+&&$$$$$$&&$$$$$&&$$$$$$$&+.....+$$$$$$$$&%$$$$$&%$$$$$$$$+...",
"....+%&&$$$$$$$$$$$$$$$$$&+........+%%&&$$$$$$$$$$$$$$$$$&&+......+%&&$$$$$$$$$$$$$$$$$$$$&&+....+$$$$$$$$$&&$$$$$&&$$$$$$$$$+..",
"....+%&&&&$$$$$$$$$$$$$$&&+.........+%&&&&$$$$$$$$$$$$$$&&+........+%&&&$$$$$$$$$$$$$$$$&&&+.....+%$$$$$$$$$$$$$$$$$$$$$$$$&&+..",
"....+%&&&&&$$$$$$$$$$$$&&&+.........+%&&&&&$$$$$$$$$$$$&&&+........+%%&&&$$$$$$$$$$$$$$&&&%+......+%&$$$$$$$$$$$$$$$$$$$$&&%+...",
"....+%%&&&&&&&&$$$$$$$&&%%+.........+%%&&&&&&&&$$$$$$$&&%%+.........+%%&&$$$$$$$$$$$$$&&%%+.......+%%&&$$$$$$$$$$$$$$$$$&&%%+...",
".....+%%&&&&&&&&&&&&&&&%%+...........+%%&&&&&&&&&&&&&&&%%+...........+%%&&&&&&&&&&&&&&&%%+.........++%%&&&&&&&&&&&&&&&&&&%++....",
".....+%%%%%%%%%%%%%%%%%%%+...........+%%%%%%%%%%%%%%%%%%%+...........+%%%%%%%%%%%%%%%%%%%+...........+%%%%%%%%%%%%%%%%%%%+......",
"......+++++++++++++++++++.............+++++++++++++++++++.............+++++++++++++++++++.............+++++++++++++++++++.......",
"................................................................................................................................",
"................................................................................................................................",
"................................................................................................................................",
"................................................................................................................................",
"................................................................................................................................",
"................................................................................................................................"};
